<svg width="1500" height="500" viewBox="0 0 1500 500" fill="none" xmlns="http://www.w3.org/2000/svg">
<rect width="1500" height="500" fill="url(#paint0_linear)" fill-opacity="0.45"/>
<path d="M185.689 300H140.621C135.771 300 131.36 299.089 127.389 297.266C123.417 295.443 120.016 292.952 117.184 289.795C114.384 286.637 112.219 282.926 110.689 278.662C109.16 274.398 108.395 269.84 108.395 264.99C108.395 260.173 109.16 255.648 110.689 251.416C112.219 247.152 114.384 243.441 117.184 240.283C120.016 237.093 123.417 234.587 127.389 232.764C131.36 230.908 135.771 229.98 140.621 229.98H185.689V239.99H140.621C137.171 239.99 134.062 240.658 131.295 241.992C128.561 243.294 126.233 245.085 124.312 247.363C122.424 249.609 120.96 252.246 119.918 255.273C118.909 258.301 118.404 261.54 118.404 264.99C118.404 268.441 118.909 271.696 119.918 274.756C120.96 277.783 122.424 280.436 124.312 282.715C126.233 284.961 128.561 286.735 131.295 288.037C134.062 289.339 137.171 289.99 140.621 289.99H185.689V300ZM272.773 300H222.773C220.332 300 218.053 299.544 215.938 298.633C213.822 297.721 211.966 296.484 210.371 294.922C208.776 293.327 207.523 291.471 206.611 289.355C205.7 287.207 205.244 284.928 205.244 282.52C205.244 280.078 205.7 277.799 206.611 275.684C207.523 273.568 208.776 271.712 210.371 270.117C211.966 268.522 213.822 267.269 215.938 266.357C218.053 265.446 220.332 264.99 222.773 264.99H257.734V275H222.773C221.732 275 220.755 275.212 219.844 275.635C218.932 276.025 218.135 276.562 217.451 277.246C216.768 277.93 216.23 278.727 215.84 279.639C215.449 280.55 215.254 281.51 215.254 282.52C215.254 283.561 215.449 284.538 215.84 285.449C216.23 286.328 216.768 287.109 217.451 287.793C218.135 288.477 218.932 289.014 219.844 289.404C220.755 289.795 221.732 289.99 222.773 289.99H262.764V262.5C262.764 261.491 262.552 260.531 262.129 259.619C261.738 258.708 261.201 257.91 260.518 257.227C259.834 256.543 259.036 256.006 258.125 255.615C257.214 255.192 256.253 254.98 255.244 254.98H215.254V245.02H255.244C257.686 245.02 259.964 245.475 262.08 246.387C264.196 247.298 266.051 248.551 267.646 250.146C269.242 251.709 270.495 253.548 271.406 255.664C272.318 257.78 272.773 260.059 272.773 262.5V300ZM310.297 300H300.287V245.02H337.787C341.563 245.02 345.111 245.752 348.432 247.217C351.752 248.649 354.649 250.618 357.123 253.125C359.597 255.599 361.55 258.512 362.982 261.865C364.415 265.186 365.131 268.734 365.131 272.51V300H355.121V272.51C355.121 270.101 354.665 267.839 353.754 265.723C352.842 263.607 351.605 261.768 350.043 260.205C348.48 258.61 346.641 257.357 344.525 256.445C342.442 255.501 340.196 255.013 337.787 254.98H310.297V300ZM517.619 300H486.906L486.027 302.393C486.711 302.393 487.476 302.474 488.322 302.637C489.201 302.832 490.015 303.158 490.764 303.613C491.545 304.069 492.18 304.72 492.668 305.566C493.189 306.413 493.449 307.487 493.449 308.789C493.449 310.156 493.107 311.296 492.424 312.207C491.773 313.118 490.91 313.851 489.836 314.404C488.762 314.958 487.557 315.348 486.223 315.576C484.921 315.804 483.618 315.918 482.316 315.918C481.112 315.918 480.103 315.885 479.289 315.82C478.508 315.755 477.824 315.674 477.238 315.576C476.652 315.479 476.148 315.381 475.725 315.283C475.301 315.218 474.862 315.153 474.406 315.088V308.887C475.318 309.342 476.408 309.717 477.678 310.01C478.947 310.335 480.233 310.498 481.535 310.498C482.837 310.498 483.928 310.352 484.807 310.059C485.686 309.766 486.125 309.31 486.125 308.691C486.125 308.301 485.979 307.992 485.686 307.764C485.393 307.536 485.035 307.357 484.611 307.227C484.221 307.096 483.781 306.999 483.293 306.934C482.837 306.901 482.414 306.885 482.023 306.885C481.47 306.885 480.9 306.917 480.314 306.982C479.761 307.08 479.24 307.194 478.752 307.324L481.438 300H472.551C467.701 300 463.29 299.089 459.318 297.266C455.347 295.443 451.945 292.952 449.113 289.795C446.314 286.637 444.149 282.926 442.619 278.662C441.089 274.398 440.324 269.84 440.324 264.99C440.324 260.173 441.089 255.648 442.619 251.416C444.149 247.152 446.314 243.441 449.113 240.283C451.945 237.093 455.347 234.587 459.318 232.764C463.29 230.908 467.701 229.98 472.551 229.98H517.619V239.99H472.551C469.1 239.99 465.992 240.658 463.225 241.992C460.49 243.294 458.163 245.085 456.242 247.363C454.354 249.609 452.889 252.246 451.848 255.273C450.839 258.301 450.334 261.54 450.334 264.99C450.334 268.441 450.839 271.696 451.848 274.756C452.889 277.783 454.354 280.436 456.242 282.715C458.163 284.961 460.49 286.735 463.225 288.037C465.992 289.339 469.1 289.99 472.551 289.99H517.619V300ZM605.484 262.5C605.484 264.941 605.029 267.22 604.117 269.336C603.206 271.452 601.952 273.307 600.357 274.902C598.795 276.465 596.939 277.702 594.791 278.613C592.675 279.525 590.413 279.98 588.004 279.98H549.674C550.39 281.445 551.285 282.796 552.359 284.033C553.434 285.27 554.638 286.328 555.973 287.207C557.307 288.086 558.756 288.77 560.318 289.258C561.913 289.746 563.574 289.99 565.299 289.99H598.014V300H565.299C561.523 299.967 557.975 299.235 554.654 297.803C551.334 296.338 548.437 294.368 545.963 291.895C543.521 289.388 541.585 286.475 540.152 283.154C538.72 279.834 538.004 276.286 538.004 272.51C538.004 268.734 538.72 265.186 540.152 261.865C541.585 258.545 543.521 255.648 545.963 253.174C548.437 250.667 551.334 248.698 554.654 247.266C557.975 245.801 561.523 245.052 565.299 245.02H588.004C590.413 245.02 592.675 245.475 594.791 246.387C596.939 247.298 598.795 248.551 600.357 250.146C601.952 251.709 603.206 253.548 604.117 255.664C605.029 257.78 605.484 260.059 605.484 262.5ZM588.004 270.02C589.013 270.02 589.973 269.824 590.885 269.434C591.796 269.043 592.594 268.506 593.277 267.822C593.961 267.139 594.498 266.341 594.889 265.43C595.279 264.518 595.475 263.542 595.475 262.5C595.475 261.491 595.279 260.531 594.889 259.619C594.498 258.708 593.961 257.91 593.277 257.227C592.594 256.543 591.796 256.006 590.885 255.615C589.973 255.192 589.013 254.98 588.004 254.98H565.299C563.085 254.98 561.002 255.371 559.049 256.152C557.128 256.934 555.403 258.008 553.873 259.375C552.376 260.71 551.122 262.305 550.113 264.16C549.137 265.983 548.502 267.936 548.209 270.02H588.004ZM648.428 300H645.938C643.496 300 641.217 299.544 639.102 298.633C636.986 297.721 635.13 296.484 633.535 294.922C631.94 293.327 630.687 291.471 629.775 289.355C628.864 287.207 628.408 284.928 628.408 282.52V225H638.418V282.52C638.418 283.561 638.613 284.538 639.004 285.449C639.395 286.328 639.932 287.109 640.615 287.793C641.299 288.477 642.096 289.014 643.008 289.404C643.919 289.795 644.896 289.99 645.938 289.99H648.428V300ZM683.119 232.52C683.119 233.561 682.924 234.538 682.533 235.449C682.143 236.328 681.605 237.109 680.922 237.793C680.238 238.477 679.441 239.014 678.529 239.404C677.618 239.795 676.658 239.99 675.648 239.99C674.607 239.99 673.63 239.795 672.719 239.404C671.807 239.014 671.01 238.477 670.326 237.793C669.643 237.109 669.105 236.328 668.715 235.449C668.324 234.538 668.129 233.561 668.129 232.52C668.129 231.51 668.324 230.55 668.715 229.639C669.105 228.727 669.643 227.93 670.326 227.246C671.01 226.562 671.807 226.025 672.719 225.635C673.63 225.212 674.607 225 675.648 225C676.658 225 677.618 225.212 678.529 225.635C679.441 226.025 680.238 226.562 680.922 227.246C681.605 227.93 682.143 228.727 682.533 229.639C682.924 230.55 683.119 231.51 683.119 232.52ZM680.629 300H670.619V245.02H680.629V300ZM773.67 300H759.363L730.164 276.514L718.543 285.986V300H708.533V225H718.543V275.391L754.969 245.02H768.543L737.439 270.508L773.67 300Z" fill="#90979A"/>
<path d="M189.49 43.48H193.97V83.8H189.49V87H203.058V83.8H198.578V43.48H203.058V40.28H189.49V43.48ZM265.76 87H272.608V83.8H268.768V59.736C268.768 52.9093 264.544 49.496 256.096 49.496C253.536 49.496 251.403 49.752 249.696 50.264C247.989 50.776 246.667 51.5867 245.728 52.696C244.832 53.7627 244.171 54.9147 243.744 56.152C243.36 57.3893 243.104 58.9253 242.976 60.76L246.752 60.952C246.923 58.3067 247.605 56.3653 248.8 55.128C250.037 53.8907 252.469 53.272 256.096 53.272C261.557 53.272 264.288 55.4267 264.288 59.736V66.136L252.448 66.904C248.139 67.2027 245.216 68.1627 243.68 69.784C242.144 71.4053 241.376 74.0507 241.376 77.72C241.376 81.0907 242.165 83.6293 243.744 85.336C245.365 87.0427 248.181 87.896 252.192 87.896C256.715 87.896 260.853 86.2107 264.608 82.84L265.76 87ZM252.832 84.248C250.229 84.248 248.395 83.736 247.328 82.712C246.261 81.6453 245.728 80.0453 245.728 77.912C245.728 75.0107 246.197 73.0693 247.136 72.088C248.117 71.064 249.973 70.4667 252.704 70.296L264.288 69.592V79.256C260.789 82.584 256.971 84.248 252.832 84.248ZM309.172 87H321.332V83.8H317.492V60.888C317.492 59.864 317.428 58.904 317.3 58.008C320.713 54.8507 324.489 53.272 328.628 53.272C333.193 53.272 335.476 55.8107 335.476 60.888V83.8H331.636V87H343.796V83.8H339.956V60.888C339.956 53.2933 336.372 49.496 329.204 49.496C326.814 49.496 324.446 50.008 322.1 51.032C319.796 52.056 317.897 53.3147 316.404 54.808C314.825 51.2667 311.604 49.496 306.74 49.496C302.217 49.496 298.164 51.1173 294.58 54.36L293.556 50.392H290.548H286.708V53.592H290.548V83.8H286.708V87H298.868V83.8H295.028V57.88C298.356 54.808 302.068 53.272 306.164 53.272C310.729 53.272 313.012 55.8107 313.012 60.888V83.8H309.172V87ZM381.915 43.48H385.755V44.056V83.736H381.915V87H395.483V83.736H390.363V65.176H407.515V61.336H390.363V44.056H407.131V50.392H410.715V40.28H381.915V43.48ZM430.336 50.392H427.328H423.488V53.592H427.328V83.8H423.488V87H436.928V83.8H431.808V62.104C434.709 56.7707 439.168 53.9973 445.184 53.784V49.496C439.21 49.7093 434.73 52.3547 431.744 57.432L430.336 50.392ZM471.036 84.12C468.988 84.12 467.239 83.8213 465.788 83.224C464.38 82.584 463.292 81.8373 462.524 80.984C461.799 80.088 461.223 78.8933 460.796 77.4C460.369 75.864 460.113 74.4987 460.028 73.304C459.943 72.0667 459.9 70.5307 459.9 68.696C459.9 66.8613 459.943 65.3467 460.028 64.152C460.113 62.9147 460.369 61.5493 460.796 60.056C461.223 58.52 461.799 57.3253 462.524 56.472C463.292 55.576 464.38 54.8293 465.788 54.232C467.239 53.592 468.988 53.272 471.036 53.272C473.084 53.272 474.812 53.592 476.22 54.232C477.671 54.8293 478.759 55.576 479.484 56.472C480.252 57.3253 480.849 58.52 481.276 60.056C481.703 61.5493 481.959 62.9147 482.044 64.152C482.129 65.3467 482.172 66.8613 482.172 68.696C482.172 70.5307 482.129 72.0667 482.044 73.304C481.959 74.4987 481.703 75.864 481.276 77.4C480.849 78.8933 480.252 80.088 479.484 80.984C478.759 81.8373 477.671 82.584 476.22 83.224C474.812 83.8213 473.084 84.12 471.036 84.12ZM471.036 87.896C472.999 87.896 474.748 87.704 476.284 87.32C477.863 86.936 479.185 86.4453 480.252 85.848C481.361 85.208 482.3 84.3973 483.068 83.416C483.879 82.4347 484.497 81.432 484.924 80.408C485.393 79.384 485.756 78.1893 486.012 76.824C486.268 75.416 486.439 74.1147 486.524 72.92C486.609 71.6827 486.652 70.2747 486.652 68.696C486.652 67.1173 486.609 65.7307 486.524 64.536C486.439 63.2987 486.268 61.9973 486.012 60.632C485.756 59.224 485.393 58.008 484.924 56.984C484.497 55.96 483.879 54.9573 483.068 53.976C482.3 52.9947 481.361 52.2053 480.252 51.608C479.185 50.968 477.863 50.456 476.284 50.072C474.748 49.688 472.999 49.496 471.036 49.496C469.073 49.496 467.303 49.688 465.724 50.072C464.188 50.456 462.865 50.968 461.756 51.608C460.689 52.2053 459.751 52.9947 458.94 53.976C458.172 54.9573 457.553 55.96 457.084 56.984C456.657 58.008 456.316 59.224 456.06 60.632C455.804 61.9973 455.633 63.2987 455.548 64.536C455.463 65.7307 455.42 67.1173 455.42 68.696C455.42 70.2747 455.463 71.6827 455.548 72.92C455.633 74.1147 455.804 75.416 456.06 76.824C456.316 78.1893 456.657 79.384 457.084 80.408C457.553 81.432 458.172 82.4347 458.94 83.416C459.751 84.3973 460.689 85.208 461.756 85.848C462.865 86.4453 464.188 86.936 465.724 87.32C467.303 87.704 469.073 87.896 471.036 87.896ZM500.757 53.592H504.597V83.8H500.757V87H512.917V83.8H509.077V58.008C513.045 54.8507 517.205 53.272 521.557 53.272C523.989 53.272 525.717 53.8693 526.741 55.064C527.808 56.2587 528.341 58.2 528.341 60.888V83.8H524.501V87H536.661V83.8H532.821V60.952C532.821 57.0267 531.989 54.1467 530.325 52.312C528.704 50.4347 526.016 49.496 522.261 49.496C517.525 49.496 513.003 51.16 508.693 54.488L507.605 50.392H500.757V53.592ZM548.528 53.592H554.288V79C554.288 80.0667 554.309 80.9627 554.352 81.688C554.437 82.4133 554.608 83.2027 554.864 84.056C555.12 84.9093 555.461 85.592 555.888 86.104C556.357 86.616 556.997 87.0427 557.808 87.384C558.661 87.7253 559.664 87.896 560.816 87.896C562.352 87.896 564.186 87.5973 566.32 87L565.744 83.864C564.25 84.2053 563.077 84.376 562.224 84.376C560.986 84.376 560.09 83.9707 559.536 83.16C559.024 82.3493 558.768 80.9627 558.768 79V53.592H565.488V50.392H558.768V42.2L554.288 43.096V50.392H548.528V53.592ZM579.778 68.568H602.306V64.728H579.778V68.568ZM617.037 87H648.397V76.888H644.813V83.224H625.485V65.176H643.917V61.336H625.485V44.056H643.533V50.392H647.117V40.28H617.037V43.48H620.877V83.8H617.037V87ZM662.485 53.592H666.325V83.8H662.485V87H674.645V83.8H670.805V58.008C674.773 54.8507 678.933 53.272 683.285 53.272C685.717 53.272 687.445 53.8693 688.469 55.064C689.536 56.2587 690.069 58.2 690.069 60.888V83.8H686.229V87H698.389V83.8H694.549V60.952C694.549 57.0267 693.717 54.1467 692.053 52.312C690.432 50.4347 687.744 49.496 683.989 49.496C679.253 49.496 674.73 51.16 670.421 54.488L669.333 50.392H662.485V53.592ZM738.031 87H744.879V83.8H741.039V39H732.719V42.2H736.559V51.8C732.89 50.264 729.348 49.496 725.935 49.496C723.503 49.496 721.391 49.8587 719.599 50.584C717.85 51.3093 716.484 52.2267 715.503 53.336C714.522 54.4453 713.732 55.896 713.135 57.688C712.58 59.48 712.218 61.208 712.047 62.872C711.919 64.4933 711.855 66.4347 711.855 68.696C711.855 70.9573 711.919 72.92 712.047 74.584C712.218 76.2053 712.58 77.912 713.135 79.704C713.69 81.496 714.436 82.9467 715.375 84.056C716.356 85.1653 717.7 86.0827 719.407 86.808C721.156 87.5333 723.226 87.896 725.615 87.896C729.754 87.896 733.615 86.3173 737.199 83.16L738.031 87ZM726.383 84.12C722.415 84.12 719.748 82.8187 718.383 80.216C717.018 77.6133 716.335 73.7733 716.335 68.696C716.335 66.264 716.463 64.1947 716.719 62.488C717.018 60.7813 717.508 59.2027 718.191 57.752C718.916 56.2587 719.962 55.1493 721.327 54.424C722.735 53.656 724.484 53.272 726.575 53.272C730.116 53.272 733.444 53.9973 736.559 55.448V79.832C733.444 82.6907 730.052 84.12 726.383 84.12ZM798.633 87L806.889 49.176L815.209 87H821.929L831.721 43.48H834.409V40.28H822.761V43.48H827.049L818.409 82.776L809.193 40.28H804.649L795.369 82.776L786.793 43.48H791.081V40.28H779.433V43.48H782.057L791.913 87H798.633ZM860.883 87.896C863.614 87.896 865.897 87.576 867.731 86.936C869.609 86.296 871.017 85.3787 871.955 84.184C872.937 82.9467 873.641 81.688 874.067 80.408C874.494 79.0853 874.793 77.5067 874.963 75.672L871.251 75.48C870.995 78.296 870.142 80.4507 868.691 81.944C867.241 83.3947 864.595 84.12 860.755 84.12C856.531 84.12 853.694 83.032 852.243 80.856C850.835 78.6373 850.11 74.9253 850.067 69.72H875.539V68.696C875.539 66.4347 875.454 64.4933 875.283 62.872C875.113 61.208 874.729 59.48 874.131 57.688C873.534 55.896 872.702 54.4453 871.635 53.336C870.611 52.2267 869.161 51.3093 867.283 50.584C865.449 49.8587 863.23 49.496 860.627 49.496C858.025 49.496 855.785 49.8587 853.907 50.584C852.03 51.3093 850.558 52.2267 849.491 53.336C848.425 54.4453 847.593 55.896 846.995 57.688C846.398 59.48 846.014 61.208 845.843 62.872C845.673 64.4933 845.587 66.4347 845.587 68.696C845.587 75.3947 846.633 80.28 848.723 83.352C850.857 86.3813 854.91 87.896 860.883 87.896ZM860.563 53.272C862.739 53.272 864.531 53.592 865.939 54.232C867.39 54.872 868.457 55.8533 869.139 57.176C869.822 58.456 870.291 59.7787 870.547 61.144C870.803 62.5093 870.953 64.1947 870.995 66.2H850.067C850.11 64.28 850.259 62.6373 850.515 61.272C850.814 59.9067 851.305 58.584 851.987 57.304C852.713 55.9813 853.779 54.9787 855.187 54.296C856.638 53.6133 858.43 53.272 860.563 53.272ZM887.677 42.2H891.517V87H894.525L895.421 83.736C899.261 86.5093 903.208 87.896 907.261 87.896C909.608 87.896 911.613 87.5333 913.277 86.808C914.941 86.0827 916.243 85.1653 917.181 84.056C918.12 82.9467 918.867 81.496 919.421 79.704C919.976 77.912 920.317 76.2053 920.445 74.584C920.616 72.92 920.701 70.9573 920.701 68.696C920.701 66.4773 920.616 64.536 920.445 62.872C920.275 61.208 919.912 59.5013 919.357 57.752C918.845 55.96 918.099 54.5093 917.117 53.4C916.179 52.248 914.877 51.3093 913.213 50.584C911.549 49.8587 909.565 49.496 907.261 49.496C903.635 49.496 899.88 50.648 895.997 52.952V39H891.517H887.677V42.2ZM906.621 53.272C908.029 53.272 909.267 53.464 910.333 53.848C911.4 54.232 912.275 54.808 912.957 55.576C913.64 56.344 914.195 57.1973 914.621 58.136C915.091 59.032 915.432 60.12 915.645 61.4C915.859 62.6373 916.008 63.8107 916.093 64.92C916.179 65.9867 916.221 67.2453 916.221 68.696C916.221 70.6587 916.157 72.3013 916.029 73.624C915.944 74.904 915.709 76.2693 915.325 77.72C914.941 79.1707 914.387 80.3227 913.661 81.176C912.979 82.0293 911.976 82.7333 910.653 83.288C909.373 83.8427 907.816 84.12 905.981 84.12C902.525 84.12 899.197 82.904 895.997 80.472V56.6C899.453 54.3813 902.995 53.272 906.621 53.272ZM967.253 40.28H958.805V43.48H962.645V83.8H958.805V87H976.405C979.605 87 982.314 86.6373 984.533 85.912C986.752 85.1867 988.501 84.2267 989.781 83.032C991.104 81.8373 992.106 80.1947 992.789 78.104C993.514 76.0133 993.984 73.9013 994.197 71.768C994.41 69.592 994.517 66.8827 994.517 63.64C994.517 60.952 994.432 58.6907 994.261 56.856C994.133 54.9787 993.856 53.1013 993.429 51.224C993.002 49.304 992.384 47.7467 991.573 46.552C990.762 45.3147 989.696 44.184 988.373 43.16C987.05 42.136 985.386 41.4107 983.381 40.984C981.418 40.5147 979.093 40.28 976.405 40.28H967.253ZM976.405 44.056C979.349 44.056 981.738 44.4827 983.573 45.336C985.45 46.1893 986.837 47.5547 987.733 49.432C988.629 51.3093 989.205 53.2933 989.461 55.384C989.76 57.4747 989.909 60.2267 989.909 63.64C989.909 67.0533 989.76 69.8053 989.461 71.896C989.205 73.9867 988.629 75.9707 987.733 77.848C986.837 79.7253 985.45 81.0907 983.573 81.944C981.738 82.7973 979.349 83.224 976.405 83.224H967.253V44.056H976.405ZM1023.92 87.896C1026.65 87.896 1028.94 87.576 1030.77 86.936C1032.65 86.296 1034.06 85.3787 1035 84.184C1035.98 82.9467 1036.68 81.688 1037.11 80.408C1037.53 79.0853 1037.83 77.5067 1038 75.672L1034.29 75.48C1034.04 78.296 1033.18 80.4507 1031.73 81.944C1030.28 83.3947 1027.64 84.12 1023.8 84.12C1019.57 84.12 1016.73 83.032 1015.28 80.856C1013.88 78.6373 1013.15 74.9253 1013.11 69.72H1038.58V68.696C1038.58 66.4347 1038.49 64.4933 1038.32 62.872C1038.15 61.208 1037.77 59.48 1037.17 57.688C1036.57 55.896 1035.74 54.4453 1034.68 53.336C1033.65 52.2267 1032.2 51.3093 1030.32 50.584C1028.49 49.8587 1026.27 49.496 1023.67 49.496C1021.06 49.496 1018.82 49.8587 1016.95 50.584C1015.07 51.3093 1013.6 52.2267 1012.53 53.336C1011.46 54.4453 1010.63 55.896 1010.04 57.688C1009.44 59.48 1009.05 61.208 1008.88 62.872C1008.71 64.4933 1008.63 66.4347 1008.63 68.696C1008.63 75.3947 1009.67 80.28 1011.76 83.352C1013.9 86.3813 1017.95 87.896 1023.92 87.896ZM1023.6 53.272C1025.78 53.272 1027.57 53.592 1028.98 54.232C1030.43 54.872 1031.5 55.8533 1032.18 57.176C1032.86 58.456 1033.33 59.7787 1033.59 61.144C1033.84 62.5093 1033.99 64.1947 1034.04 66.2H1013.11C1013.15 64.28 1013.3 62.6373 1013.56 61.272C1013.85 59.9067 1014.34 58.584 1015.03 57.304C1015.75 55.9813 1016.82 54.9787 1018.23 54.296C1019.68 53.6133 1021.47 53.272 1023.6 53.272ZM1059.42 50.392H1048.8V53.592H1051.29L1064.03 87H1068.89L1081.63 53.592H1084.13V50.392H1073.5V53.592H1077.09L1066.46 82.072L1055.77 53.592H1059.42V50.392ZM1110.32 87.896C1113.05 87.896 1115.33 87.576 1117.17 86.936C1119.04 86.296 1120.45 85.3787 1121.39 84.184C1122.37 82.9467 1123.08 81.688 1123.5 80.408C1123.93 79.0853 1124.23 77.5067 1124.4 75.672L1120.69 75.48C1120.43 78.296 1119.58 80.4507 1118.13 81.944C1116.68 83.3947 1114.03 84.12 1110.19 84.12C1105.97 84.12 1103.13 83.032 1101.68 80.856C1100.27 78.6373 1099.55 74.9253 1099.5 69.72H1124.97V68.696C1124.97 66.4347 1124.89 64.4933 1124.72 62.872C1124.55 61.208 1124.16 59.48 1123.57 57.688C1122.97 55.896 1122.14 54.4453 1121.07 53.336C1120.05 52.2267 1118.6 51.3093 1116.72 50.584C1114.88 49.8587 1112.67 49.496 1110.06 49.496C1107.46 49.496 1105.22 49.8587 1103.34 50.584C1101.47 51.3093 1099.99 52.2267 1098.93 53.336C1097.86 54.4453 1097.03 55.896 1096.43 57.688C1095.83 59.48 1095.45 61.208 1095.28 62.872C1095.11 64.4933 1095.02 66.4347 1095.02 68.696C1095.02 75.3947 1096.07 80.28 1098.16 83.352C1100.29 86.3813 1104.35 87.896 1110.32 87.896ZM1110 53.272C1112.17 53.272 1113.97 53.592 1115.37 54.232C1116.83 54.872 1117.89 55.8533 1118.57 57.176C1119.26 58.456 1119.73 59.7787 1119.98 61.144C1120.24 62.5093 1120.39 64.1947 1120.43 66.2H1099.5C1099.55 64.28 1099.69 62.6373 1099.95 61.272C1100.25 59.9067 1100.74 58.584 1101.42 57.304C1102.15 55.9813 1103.21 54.9787 1104.62 54.296C1106.07 53.6133 1107.87 53.272 1110 53.272ZM1138.39 42.2H1142.23V83.8H1138.39V87H1150.55V83.8H1146.71V39H1138.39V42.2ZM1179.58 84.12C1177.53 84.12 1175.78 83.8213 1174.33 83.224C1172.93 82.584 1171.84 81.8373 1171.07 80.984C1170.34 80.088 1169.77 78.8933 1169.34 77.4C1168.91 75.864 1168.66 74.4987 1168.57 73.304C1168.49 72.0667 1168.45 70.5307 1168.45 68.696C1168.45 66.8613 1168.49 65.3467 1168.57 64.152C1168.66 62.9147 1168.91 61.5493 1169.34 60.056C1169.77 58.52 1170.34 57.3253 1171.07 56.472C1171.84 55.576 1172.93 54.8293 1174.33 54.232C1175.78 53.592 1177.53 53.272 1179.58 53.272C1181.63 53.272 1183.36 53.592 1184.77 54.232C1186.22 54.8293 1187.3 55.576 1188.03 56.472C1188.8 57.3253 1189.39 58.52 1189.82 60.056C1190.25 61.5493 1190.5 62.9147 1190.59 64.152C1190.67 65.3467 1190.72 66.8613 1190.72 68.696C1190.72 70.5307 1190.67 72.0667 1190.59 73.304C1190.5 74.4987 1190.25 75.864 1189.82 77.4C1189.39 78.8933 1188.8 80.088 1188.03 80.984C1187.3 81.8373 1186.22 82.584 1184.77 83.224C1183.36 83.8213 1181.63 84.12 1179.58 84.12ZM1179.58 87.896C1181.54 87.896 1183.29 87.704 1184.83 87.32C1186.41 86.936 1187.73 86.4453 1188.8 85.848C1189.91 85.208 1190.85 84.3973 1191.61 83.416C1192.42 82.4347 1193.04 81.432 1193.47 80.408C1193.94 79.384 1194.3 78.1893 1194.56 76.824C1194.81 75.416 1194.98 74.1147 1195.07 72.92C1195.15 71.6827 1195.2 70.2747 1195.2 68.696C1195.2 67.1173 1195.15 65.7307 1195.07 64.536C1194.98 63.2987 1194.81 61.9973 1194.56 60.632C1194.3 59.224 1193.94 58.008 1193.47 56.984C1193.04 55.96 1192.42 54.9573 1191.61 53.976C1190.85 52.9947 1189.91 52.2053 1188.8 51.608C1187.73 50.968 1186.41 50.456 1184.83 50.072C1183.29 49.688 1181.54 49.496 1179.58 49.496C1177.62 49.496 1175.85 49.688 1174.27 50.072C1172.73 50.456 1171.41 50.968 1170.3 51.608C1169.23 52.2053 1168.3 52.9947 1167.49 53.976C1166.72 54.9573 1166.1 55.96 1165.63 56.984C1165.2 58.008 1164.86 59.224 1164.61 60.632C1164.35 61.9973 1164.18 63.2987 1164.09 64.536C1164.01 65.7307 1163.97 67.1173 1163.97 68.696C1163.97 70.2747 1164.01 71.6827 1164.09 72.92C1164.18 74.1147 1164.35 75.416 1164.61 76.824C1164.86 78.1893 1165.2 79.384 1165.63 80.408C1166.1 81.432 1166.72 82.4347 1167.49 83.416C1168.3 84.3973 1169.23 85.208 1170.3 85.848C1171.41 86.4453 1172.73 86.936 1174.27 87.32C1175.85 87.704 1177.62 87.896 1179.58 87.896ZM1215.51 50.392H1212.5H1208.66V53.592H1212.5V98.328H1208.66V101.528H1222.1V98.328H1216.98V85.656C1220.4 87.1493 1223.94 87.896 1227.61 87.896C1230.04 87.896 1232.13 87.5333 1233.88 86.808C1235.67 86.0827 1237.06 85.1653 1238.04 84.056C1239.02 82.9467 1239.79 81.496 1240.34 79.704C1240.94 77.912 1241.3 76.2053 1241.43 74.584C1241.6 72.92 1241.69 70.9573 1241.69 68.696C1241.69 66.4347 1241.6 64.4933 1241.43 62.872C1241.3 61.208 1240.96 59.48 1240.41 57.688C1239.85 55.896 1239.11 54.4453 1238.17 53.336C1237.23 52.2267 1235.93 51.3093 1234.26 50.584C1232.6 49.8587 1230.59 49.496 1228.25 49.496C1224.24 49.496 1220.29 50.9467 1216.41 53.848L1215.51 50.392ZM1227.61 53.272C1229.01 53.272 1230.25 53.464 1231.32 53.848C1232.39 54.232 1233.26 54.808 1233.94 55.576C1234.63 56.344 1235.18 57.1973 1235.61 58.136C1236.08 59.032 1236.42 60.12 1236.63 61.4C1236.84 62.6373 1236.99 63.8107 1237.08 64.92C1237.16 65.9867 1237.21 67.2453 1237.21 68.696C1237.21 70.6587 1237.14 72.3227 1237.01 73.688C1236.93 75.0107 1236.67 76.3973 1236.25 77.848C1235.86 79.256 1235.31 80.3867 1234.58 81.24C1233.86 82.0507 1232.85 82.7333 1231.57 83.288C1230.29 83.8427 1228.76 84.12 1226.97 84.12C1223.3 84.12 1219.97 83.4373 1216.98 82.072V57.048C1220.27 54.5307 1223.81 53.272 1227.61 53.272ZM1271.05 87.896C1273.78 87.896 1276.06 87.576 1277.89 86.936C1279.77 86.296 1281.18 85.3787 1282.12 84.184C1283.1 82.9467 1283.8 81.688 1284.23 80.408C1284.66 79.0853 1284.96 77.5067 1285.13 75.672L1281.41 75.48C1281.16 78.296 1280.3 80.4507 1278.85 81.944C1277.4 83.3947 1274.76 84.12 1270.92 84.12C1266.69 84.12 1263.86 83.032 1262.41 80.856C1261 78.6373 1260.27 74.9253 1260.23 69.72H1285.7V68.696C1285.7 66.4347 1285.62 64.4933 1285.45 62.872C1285.28 61.208 1284.89 59.48 1284.29 57.688C1283.7 55.896 1282.86 54.4453 1281.8 53.336C1280.77 52.2267 1279.32 51.3093 1277.45 50.584C1275.61 49.8587 1273.39 49.496 1270.79 49.496C1268.19 49.496 1265.95 49.8587 1264.07 50.584C1262.19 51.3093 1260.72 52.2267 1259.65 53.336C1258.59 54.4453 1257.76 55.896 1257.16 57.688C1256.56 59.48 1256.18 61.208 1256.01 62.872C1255.84 64.4933 1255.75 66.4347 1255.75 68.696C1255.75 75.3947 1256.8 80.28 1258.89 83.352C1261.02 86.3813 1265.07 87.896 1271.05 87.896ZM1270.73 53.272C1272.9 53.272 1274.69 53.592 1276.1 54.232C1277.55 54.872 1278.62 55.8533 1279.3 57.176C1279.98 58.456 1280.45 59.7787 1280.71 61.144C1280.97 62.5093 1281.12 64.1947 1281.16 66.2H1260.23C1260.27 64.28 1260.42 62.6373 1260.68 61.272C1260.98 59.9067 1261.47 58.584 1262.15 57.304C1262.88 55.9813 1263.94 54.9787 1265.35 54.296C1266.8 53.6133 1268.59 53.272 1270.73 53.272ZM1306.61 50.392H1303.6H1299.76V53.592H1303.6V83.8H1299.76V87H1313.2V83.8H1308.08V62.104C1310.98 56.7707 1315.44 53.9973 1321.46 53.784V49.496C1315.48 49.7093 1311 52.3547 1308.02 57.432L1306.61 50.392Z" fill="#90979A"/>
<path d="M1092.03 262.121L1096.36 235.442L1143.95 233.279V258.516L1151.88 275.1L1133.13 279.426L1120.87 283.032L1092.03 262.121Z" fill="#F1D6C3" stroke="#90979A" stroke-width="7"/>
<path d="M1009.83 436.136C1007.57 430.134 1002.36 415.728 999.637 415.728H982.647C979.476 415.528 973.269 416.568 973.812 422.331L973.813 437.337H1003.04L1009.83 436.136Z" fill="#C4C4C4" stroke="#90979A" stroke-width="4"/>
<path d="M1227.59 436.136C1229.85 430.134 1235.07 415.728 1237.78 415.728H1254.77C1257.95 415.528 1264.15 416.568 1263.61 422.331L1263.61 437.337H1234.39L1227.59 436.136Z" fill="#C4C4C4" stroke="#90979A" stroke-width="4"/>
<path d="M1094.19 249.863C1044.59 252.17 1027.86 278.705 1025.69 291.684L1015.6 299.616C1021.85 302.019 1036.08 306.826 1043 306.826C1051.65 306.826 1055.98 298.174 1064.63 299.616C1073.28 301.058 1094.19 306.826 1113.66 306.826H1141.78L1213.89 314.037L1219.66 291.684C1197.74 253.613 1158.61 247.94 1141.78 249.863C1136.59 270.629 1125.68 274.86 1120.87 274.379C1104.15 278.417 1096.12 259.717 1094.19 249.863Z" fill="#C4C4C4" stroke="#90979A" stroke-width="7"/>
<rect x="991.084" y="288.079" width="258.137" height="151.421" rx="6" fill="#C4C4C4" stroke="#90979A" stroke-width="5"/>
<circle cx="1120.87" cy="364.51" r="23.4579" fill="#FE7100" stroke="#90979A" stroke-width="5"/>
<path d="M906 438.779H1334.31" stroke="#90979A" stroke-width="6" stroke-linecap="round" stroke-linejoin="round"/>
<path d="M1197.31 185.144C1194.7 196.287 1182.31 199.073 1176.45 199.073C1174.49 199.073 1170.45 198.144 1169.93 194.43C1169.28 189.787 1170.58 188.46 1169.28 185.144C1168.23 182.491 1168.84 180.059 1169.28 179.175L1166.67 169.889L1177.75 167.899C1193.39 165.776 1197.31 178.511 1197.31 185.144Z" fill="#F6D4C0"/>
<path d="M1051.29 167.899H1068.24C1068.46 171.879 1068.76 180.103 1068.24 181.164C1067.72 182.226 1068.89 196.641 1069.54 203.716L1055.2 201.063C1043.73 197.348 1040.43 188.903 1040.21 185.144C1039.17 175.062 1047.16 169.447 1051.29 167.899Z" fill="#F6D4C0"/>
<path d="M1197.31 185.144C1194.7 196.287 1182.31 199.073 1176.45 199.073C1174.49 199.073 1170.45 198.144 1169.93 194.43C1169.28 189.787 1170.58 188.46 1169.28 185.144C1168.23 182.491 1168.84 180.059 1169.28 179.175L1166.67 169.889L1177.75 167.899C1193.39 165.776 1197.31 178.511 1197.31 185.144Z" stroke="#90979A" stroke-width="4"/>
<path d="M1051.29 167.899H1068.24C1068.46 171.879 1068.76 180.103 1068.24 181.164C1067.72 182.226 1068.89 196.641 1069.54 203.716L1055.2 201.063C1043.73 197.348 1040.43 188.903 1040.21 185.144C1039.17 175.062 1047.16 169.447 1051.29 167.899Z" stroke="#90979A" stroke-width="4"/>
<path d="M1174.23 149.637C1178.56 153.242 1185.77 180.642 1182.16 197.947C1169.18 236.163 1138.18 244.095 1126.64 244.095C1098.95 249.863 1074.25 226.79 1065.35 214.532C1053.24 194.919 1056.94 169.346 1060.31 159.011C1066.07 147.474 1072.8 143.628 1075.45 143.147H1153.32C1160.53 140.984 1164.14 137.619 1165.58 138.821L1174.23 149.637Z" fill="#C4C4C4"/>
<path d="M1174.23 149.637C1178.56 153.242 1185.77 180.642 1182.16 197.947C1169.18 236.163 1138.18 244.095 1126.64 244.095C1098.95 249.863 1074.25 226.79 1065.35 214.532C1053.24 194.919 1056.94 169.346 1060.31 159.011C1066.07 147.474 1072.8 143.628 1075.45 143.147H1153.32C1160.53 140.984 1164.14 137.619 1165.58 138.821L1174.23 149.637Z" fill="#F6D4C0"/>
<path d="M1174.23 149.637C1178.56 153.242 1185.77 180.642 1182.16 197.947C1169.18 236.163 1138.18 244.095 1126.64 244.095C1098.95 249.863 1074.25 226.79 1065.35 214.532C1053.24 194.919 1056.94 169.346 1060.31 159.011C1066.07 147.474 1072.8 143.628 1075.45 143.147H1153.32C1160.53 140.984 1164.14 137.619 1165.58 138.821L1174.23 149.637Z" stroke="#90979A" stroke-width="5"/>
<path d="M1176.3 147.649C1173.4 149.605 1167.05 141.274 1164.24 136.864C1164.92 131.022 1171.95 126.858 1175.38 125.507C1179.89 132.205 1177.87 143.059 1176.3 147.649Z" fill="#FE7100" stroke="#90979A" stroke-width="5"/>
<path d="M1153.32 144.59L1088.43 141.705C1079.02 140.85 1070.81 150.455 1065.35 154.684C1063.44 156.162 1061.75 154.684 1060.31 154.684V138.1C1060.88 119.064 1085.06 109.018 1097.08 106.374L1146.83 104.932C1156.64 104.932 1166.3 99.6439 1169.91 97L1174.23 119.353C1176.54 135.504 1161.25 142.907 1153.32 144.59Z" fill="#FE7100" stroke="#90979A" stroke-width="5"/>
<rect x="1075.03" y="173.74" width="36.8789" height="36.8789" rx="8.25" stroke="#90979A" stroke-width="3.5"/>
<ellipse rx="6.48947" ry="5.76842" transform="matrix(1 0 0 -1 1092.75 192.179)" fill="black" fill-opacity="0.4"/>
<ellipse rx="6.48947" ry="5.76842" transform="matrix(1 0 0 -1 1146.11 192.179)" fill="black" fill-opacity="0.4"/>
<path d="M1180.72 169.105L1164.86 186.41C1164.86 184.968 1164.86 174.153 1148.27 174.153C1144.67 174.153 1138.76 173.72 1132.41 177.758C1130.01 180.161 1128.81 187.132 1128.81 187.132C1128.81 187.132 1117.51 187.132 1111.5 187.132C1111.5 178.479 1105.01 174.153 1094.19 174.153C1079.77 174.153 1076.17 179.921 1076.17 184.968L1057.42 169.105" stroke="#90979A" stroke-width="3" stroke-linecap="round"/>
<rect x="1128.39" y="173.74" width="36.8789" height="36.8789" rx="8.25" stroke="#90979A" stroke-width="3.5"/>
<defs>
<linearGradient id="paint0_linear" x1="33.5" y1="111.5" x2="1464" y2="396" gradientUnits="userSpaceOnUse">
<stop offset="0.0833333" stop-color="#90979A"/>
<stop offset="0.520833" stop-color="#C4C4C4"/>
<stop offset="0.729167" stop-color="white" stop-opacity="0.25"/>
</linearGradient>
</defs>
</svg>
