<svg width="1500" height="500" viewBox="0 0 1500 500" fill="none" xmlns="http://www.w3.org/2000/svg">
<path d="M1500 0H0V500H1500V0Z" fill="url(#paint0_linear_407_6)" fill-opacity="0.45"/>
<path d="M185.689 300H140.621C135.771 300 131.36 299.089 127.389 297.266C123.417 295.443 120.016 292.952 117.184 289.795C114.384 286.637 112.219 282.926 110.689 278.662C109.16 274.398 108.395 269.84 108.395 264.99C108.395 260.173 109.16 255.648 110.689 251.416C112.219 247.152 114.384 243.441 117.184 240.283C120.016 237.093 123.417 234.587 127.389 232.764C131.36 230.908 135.771 229.98 140.621 229.98H185.689V239.99H140.621C137.171 239.99 134.062 240.658 131.295 241.992C128.561 243.294 126.233 245.085 124.312 247.363C122.424 249.609 120.96 252.246 119.918 255.273C118.909 258.301 118.404 261.54 118.404 264.99C118.404 268.441 118.909 271.696 119.918 274.756C120.96 277.783 122.424 280.436 124.312 282.715C126.233 284.961 128.561 286.735 131.295 288.037C134.062 289.339 137.171 289.99 140.621 289.99H185.689V300ZM272.773 300H222.773C220.332 300 218.053 299.544 215.938 298.633C213.822 297.721 211.966 296.484 210.371 294.922C208.776 293.327 207.523 291.471 206.611 289.355C205.7 287.207 205.244 284.928 205.244 282.52C205.244 280.078 205.7 277.799 206.611 275.684C207.523 273.568 208.776 271.712 210.371 270.117C211.966 268.522 213.822 267.269 215.938 266.357C218.053 265.446 220.332 264.99 222.773 264.99H257.734V275H222.773C221.732 275 220.755 275.212 219.844 275.635C218.932 276.025 218.135 276.562 217.451 277.246C216.768 277.93 216.23 278.727 215.84 279.639C215.449 280.55 215.254 281.51 215.254 282.52C215.254 283.561 215.449 284.538 215.84 285.449C216.23 286.328 216.768 287.109 217.451 287.793C218.135 288.477 218.932 289.014 219.844 289.404C220.755 289.795 221.732 289.99 222.773 289.99H262.764V262.5C262.764 261.491 262.552 260.531 262.129 259.619C261.738 258.708 261.201 257.91 260.518 257.227C259.834 256.543 259.036 256.006 258.125 255.615C257.214 255.192 256.253 254.98 255.244 254.98H215.254V245.02H255.244C257.686 245.02 259.964 245.475 262.08 246.387C264.196 247.298 266.051 248.551 267.646 250.146C269.242 251.709 270.495 253.548 271.406 255.664C272.318 257.78 272.773 260.059 272.773 262.5V300ZM310.297 300H300.287V245.02H337.787C341.563 245.02 345.111 245.752 348.432 247.217C351.752 248.649 354.649 250.618 357.123 253.125C359.597 255.599 361.55 258.512 362.982 261.865C364.415 265.186 365.131 268.734 365.131 272.51V300H355.121V272.51C355.121 270.101 354.665 267.839 353.754 265.723C352.842 263.607 351.605 261.768 350.043 260.205C348.48 258.61 346.641 257.357 344.525 256.445C342.442 255.501 340.196 255.013 337.787 254.98H310.297V300ZM517.619 300H486.906L486.027 302.393C486.711 302.393 487.476 302.474 488.322 302.637C489.201 302.832 490.015 303.158 490.764 303.613C491.545 304.069 492.18 304.72 492.668 305.566C493.189 306.413 493.449 307.487 493.449 308.789C493.449 310.156 493.107 311.296 492.424 312.207C491.773 313.118 490.91 313.851 489.836 314.404C488.762 314.958 487.557 315.348 486.223 315.576C484.921 315.804 483.618 315.918 482.316 315.918C481.112 315.918 480.103 315.885 479.289 315.82C478.508 315.755 477.824 315.674 477.238 315.576C476.652 315.479 476.148 315.381 475.725 315.283C475.301 315.218 474.862 315.153 474.406 315.088V308.887C475.318 309.342 476.408 309.717 477.678 310.01C478.947 310.335 480.233 310.498 481.535 310.498C482.837 310.498 483.928 310.352 484.807 310.059C485.686 309.766 486.125 309.31 486.125 308.691C486.125 308.301 485.979 307.992 485.686 307.764C485.393 307.536 485.035 307.357 484.611 307.227C484.221 307.096 483.781 306.999 483.293 306.934C482.837 306.901 482.414 306.885 482.023 306.885C481.47 306.885 480.9 306.917 480.314 306.982C479.761 307.08 479.24 307.194 478.752 307.324L481.438 300H472.551C467.701 300 463.29 299.089 459.318 297.266C455.347 295.443 451.945 292.952 449.113 289.795C446.314 286.637 444.149 282.926 442.619 278.662C441.089 274.398 440.324 269.84 440.324 264.99C440.324 260.173 441.089 255.648 442.619 251.416C444.149 247.152 446.314 243.441 449.113 240.283C451.945 237.093 455.347 234.587 459.318 232.764C463.29 230.908 467.701 229.98 472.551 229.98H517.619V239.99H472.551C469.1 239.99 465.992 240.658 463.225 241.992C460.49 243.294 458.163 245.085 456.242 247.363C454.354 249.609 452.889 252.246 451.848 255.273C450.839 258.301 450.334 261.54 450.334 264.99C450.334 268.441 450.839 271.696 451.848 274.756C452.889 277.783 454.354 280.436 456.242 282.715C458.163 284.961 460.49 286.735 463.225 288.037C465.992 289.339 469.1 289.99 472.551 289.99H517.619V300ZM605.484 262.5C605.484 264.941 605.029 267.22 604.117 269.336C603.206 271.452 601.952 273.307 600.357 274.902C598.795 276.465 596.939 277.702 594.791 278.613C592.675 279.525 590.413 279.98 588.004 279.98H549.674C550.39 281.445 551.285 282.796 552.359 284.033C553.434 285.27 554.638 286.328 555.973 287.207C557.307 288.086 558.756 288.77 560.318 289.258C561.913 289.746 563.574 289.99 565.299 289.99H598.014V300H565.299C561.523 299.967 557.975 299.235 554.654 297.803C551.334 296.338 548.437 294.368 545.963 291.895C543.521 289.388 541.585 286.475 540.152 283.154C538.72 279.834 538.004 276.286 538.004 272.51C538.004 268.734 538.72 265.186 540.152 261.865C541.585 258.545 543.521 255.648 545.963 253.174C548.437 250.667 551.334 248.698 554.654 247.266C557.975 245.801 561.523 245.052 565.299 245.02H588.004C590.413 245.02 592.675 245.475 594.791 246.387C596.939 247.298 598.795 248.551 600.357 250.146C601.952 251.709 603.206 253.548 604.117 255.664C605.029 257.78 605.484 260.059 605.484 262.5ZM588.004 270.02C589.013 270.02 589.973 269.824 590.885 269.434C591.796 269.043 592.594 268.506 593.277 267.822C593.961 267.139 594.498 266.341 594.889 265.43C595.279 264.518 595.475 263.542 595.475 262.5C595.475 261.491 595.279 260.531 594.889 259.619C594.498 258.708 593.961 257.91 593.277 257.227C592.594 256.543 591.796 256.006 590.885 255.615C589.973 255.192 589.013 254.98 588.004 254.98H565.299C563.085 254.98 561.002 255.371 559.049 256.152C557.128 256.934 555.403 258.008 553.873 259.375C552.376 260.71 551.122 262.305 550.113 264.16C549.137 265.983 548.502 267.936 548.209 270.02H588.004ZM648.427 300H645.938C643.495 300 641.216 299.544 639.102 298.633C636.985 297.721 635.129 296.484 633.534 294.922C631.94 293.327 630.687 291.471 629.775 289.355C628.864 287.207 628.408 284.928 628.408 282.52V225H638.418V282.52C638.418 283.561 638.613 284.538 639.004 285.449C639.395 286.328 639.932 287.109 640.615 287.793C641.299 288.477 642.096 289.014 643.008 289.404C643.919 289.795 644.896 289.99 645.938 289.99H648.427V300ZM683.119 232.52C683.119 233.561 682.924 234.538 682.533 235.449C682.143 236.328 681.604 237.109 680.922 237.793C680.237 238.477 679.44 239.014 678.529 239.404C677.617 239.795 676.658 239.99 675.648 239.99C674.607 239.99 673.63 239.795 672.719 239.404C671.807 239.014 671.01 238.477 670.326 237.793C669.643 237.109 669.105 236.328 668.715 235.449C668.324 234.538 668.129 233.561 668.129 232.52C668.129 231.51 668.324 230.55 668.715 229.639C669.105 228.727 669.643 227.93 670.326 227.246C671.01 226.562 671.807 226.025 672.719 225.635C673.63 225.212 674.607 225 675.648 225C676.658 225 677.617 225.212 678.529 225.635C679.44 226.025 680.237 226.562 680.922 227.246C681.604 227.93 682.143 228.727 682.533 229.639C682.924 230.55 683.119 231.51 683.119 232.52ZM680.629 300H670.619V245.02H680.629V300ZM773.669 300H759.362L730.164 276.514L718.543 285.986V300H708.533V225H718.543V275.391L754.969 245.02H768.543L737.439 270.508L773.669 300Z" fill="#2C3E50"/>
<path d="M189.488 43.48H193.968V83.8H189.488V87H203.056V83.8H198.576V43.48H203.056V40.28H189.488V43.48ZM265.758 87H272.606V83.8H268.766V59.736C268.766 52.9093 264.542 49.496 256.094 49.496C253.534 49.496 251.401 49.752 249.694 50.264C247.987 50.776 246.665 51.5867 245.726 52.696C244.83 53.7627 244.169 54.9147 243.742 56.152C243.358 57.3893 243.102 58.9253 242.974 60.76L246.75 60.952C246.921 58.3067 247.603 56.3653 248.798 55.128C250.035 53.8907 252.467 53.272 256.094 53.272C261.555 53.272 264.286 55.4267 264.286 59.736V66.136L252.446 66.904C248.137 67.2027 245.214 68.1627 243.678 69.784C242.142 71.4053 241.374 74.0507 241.374 77.72C241.374 81.0907 242.163 83.6293 243.742 85.336C245.363 87.0427 248.179 87.896 252.19 87.896C256.713 87.896 260.851 86.2107 264.606 82.84L265.758 87ZM252.83 84.248C250.227 84.248 248.393 83.736 247.326 82.712C246.259 81.6453 245.726 80.0453 245.726 77.912C245.726 75.0107 246.195 73.0693 247.134 72.088C248.115 71.064 249.971 70.4667 252.702 70.296L264.286 69.592V79.256C260.787 82.584 256.969 84.248 252.83 84.248ZM309.17 87H321.33V83.8H317.49V60.888C317.49 59.864 317.426 58.904 317.298 58.008C320.711 54.8507 324.487 53.272 328.626 53.272C333.191 53.272 335.474 55.8107 335.474 60.888V83.8H331.634V87H343.794V83.8H339.954V60.888C339.954 53.2933 336.37 49.496 329.202 49.496C326.812 49.496 324.444 50.008 322.098 51.032C319.794 52.056 317.895 53.3147 316.402 54.808C314.823 51.2667 311.602 49.496 306.738 49.496C302.215 49.496 298.162 51.1173 294.578 54.36L293.554 50.392H290.546H286.706V53.592H290.546V83.8H286.706V87H298.866V83.8H295.026V57.88C298.354 54.808 302.066 53.272 306.162 53.272C310.727 53.272 313.01 55.8107 313.01 60.888V83.8H309.17V87ZM381.913 43.48H385.753V44.056V83.736H381.913V87H395.481V83.736H390.361V65.176H407.513V61.336H390.361V44.056H407.129V50.392H410.713V40.28H381.913V43.48ZM430.334 50.392H427.326H423.486V53.592H427.326V83.8H423.486V87H436.926V83.8H431.806V62.104C434.707 56.7707 439.166 53.9973 445.182 53.784V49.496C439.208 49.7093 434.728 52.3547 431.742 57.432L430.334 50.392ZM471.034 84.12C468.986 84.12 467.237 83.8213 465.786 83.224C464.378 82.584 463.29 81.8373 462.522 80.984C461.797 80.088 461.221 78.8933 460.794 77.4C460.367 75.864 460.111 74.4987 460.026 73.304C459.941 72.0667 459.898 70.5307 459.898 68.696C459.898 66.8613 459.941 65.3467 460.026 64.152C460.111 62.9147 460.367 61.5493 460.794 60.056C461.221 58.52 461.797 57.3253 462.522 56.472C463.29 55.576 464.378 54.8293 465.786 54.232C467.237 53.592 468.986 53.272 471.034 53.272C473.082 53.272 474.81 53.592 476.218 54.232C477.669 54.8293 478.757 55.576 479.482 56.472C480.25 57.3253 480.847 58.52 481.274 60.056C481.701 61.5493 481.957 62.9147 482.042 64.152C482.127 65.3467 482.17 66.8613 482.17 68.696C482.17 70.5307 482.127 72.0667 482.042 73.304C481.957 74.4987 481.701 75.864 481.274 77.4C480.847 78.8933 480.25 80.088 479.482 80.984C478.757 81.8373 477.669 82.584 476.218 83.224C474.81 83.8213 473.082 84.12 471.034 84.12ZM471.034 87.896C472.997 87.896 474.746 87.704 476.282 87.32C477.861 86.936 479.183 86.4453 480.25 85.848C481.359 85.208 482.298 84.3973 483.066 83.416C483.877 82.4347 484.495 81.432 484.922 80.408C485.391 79.384 485.754 78.1893 486.01 76.824C486.266 75.416 486.437 74.1147 486.522 72.92C486.607 71.6827 486.65 70.2747 486.65 68.696C486.65 67.1173 486.607 65.7307 486.522 64.536C486.437 63.2987 486.266 61.9973 486.01 60.632C485.754 59.224 485.391 58.008 484.922 56.984C484.495 55.96 483.877 54.9573 483.066 53.976C482.298 52.9947 481.359 52.2053 480.25 51.608C479.183 50.968 477.861 50.456 476.282 50.072C474.746 49.688 472.997 49.496 471.034 49.496C469.071 49.496 467.301 49.688 465.722 50.072C464.186 50.456 462.863 50.968 461.754 51.608C460.687 52.2053 459.749 52.9947 458.938 53.976C458.17 54.9573 457.551 55.96 457.082 56.984C456.655 58.008 456.314 59.224 456.058 60.632C455.802 61.9973 455.631 63.2987 455.546 64.536C455.461 65.7307 455.418 67.1173 455.418 68.696C455.418 70.2747 455.461 71.6827 455.546 72.92C455.631 74.1147 455.802 75.416 456.058 76.824C456.314 78.1893 456.655 79.384 457.082 80.408C457.551 81.432 458.17 82.4347 458.938 83.416C459.749 84.3973 460.687 85.208 461.754 85.848C462.863 86.4453 464.186 86.936 465.722 87.32C467.301 87.704 469.071 87.896 471.034 87.896ZM500.755 53.592H504.595V83.8H500.755V87H512.915V83.8H509.075V58.008C513.043 54.8507 517.203 53.272 521.555 53.272C523.987 53.272 525.715 53.8693 526.739 55.064C527.806 56.2587 528.339 58.2 528.339 60.888V83.8H524.499V87H536.659V83.8H532.819V60.952C532.819 57.0267 531.987 54.1467 530.323 52.312C528.702 50.4347 526.014 49.496 522.259 49.496C517.523 49.496 513.001 51.16 508.691 54.488L507.603 50.392H500.755V53.592ZM548.526 53.592H554.286V79C554.286 80.0667 554.307 80.9627 554.35 81.688C554.435 82.4133 554.606 83.2027 554.862 84.056C555.118 84.9093 555.459 85.592 555.886 86.104C556.355 86.616 556.995 87.0427 557.806 87.384C558.659 87.7253 559.662 87.896 560.814 87.896C562.35 87.896 564.184 87.5973 566.318 87L565.742 83.864C564.248 84.2053 563.075 84.376 562.222 84.376C560.984 84.376 560.088 83.9707 559.534 83.16C559.022 82.3493 558.766 80.9627 558.766 79V53.592H565.486V50.392H558.766V42.2L554.286 43.096V50.392H548.526V53.592ZM579.776 68.568H602.304V64.728H579.776V68.568ZM617.035 87H648.395V76.888H644.811V83.224H625.483V65.176H643.915V61.336H625.483V44.056H643.531V50.392H647.115V40.28H617.035V43.48H620.875V83.8H617.035V87ZM662.483 53.592H666.323V83.8H662.483V87H674.643V83.8H670.803V58.008C674.771 54.8507 678.931 53.272 683.283 53.272C685.715 53.272 687.443 53.8693 688.467 55.064C689.534 56.2587 690.067 58.2 690.067 60.888V83.8H686.227V87H698.387V83.8H694.547V60.952C694.547 57.0267 693.715 54.1467 692.051 52.312C690.43 50.4347 687.742 49.496 683.987 49.496C679.251 49.496 674.728 51.16 670.419 54.488L669.331 50.392H662.483V53.592ZM738.029 87H744.877V83.8H741.037V39H732.717V42.2H736.557V51.8C732.888 50.264 729.346 49.496 725.933 49.496C723.501 49.496 721.389 49.8587 719.597 50.584C717.848 51.3093 716.482 52.2267 715.501 53.336C714.52 54.4453 713.73 55.896 713.133 57.688C712.578 59.48 712.216 61.208 712.045 62.872C711.917 64.4933 711.853 66.4347 711.853 68.696C711.853 70.9573 711.917 72.92 712.045 74.584C712.216 76.2053 712.578 77.912 713.133 79.704C713.688 81.496 714.434 82.9467 715.373 84.056C716.354 85.1653 717.698 86.0827 719.405 86.808C721.154 87.5333 723.224 87.896 725.613 87.896C729.752 87.896 733.613 86.3173 737.197 83.16L738.029 87ZM726.381 84.12C722.413 84.12 719.746 82.8187 718.381 80.216C717.016 77.6133 716.333 73.7733 716.333 68.696C716.333 66.264 716.461 64.1947 716.717 62.488C717.016 60.7813 717.506 59.2027 718.189 57.752C718.914 56.2587 719.96 55.1493 721.325 54.424C722.733 53.656 724.482 53.272 726.573 53.272C730.114 53.272 733.442 53.9973 736.557 55.448V79.832C733.442 82.6907 730.05 84.12 726.381 84.12ZM798.631 87L806.887 49.176L815.207 87H821.927L831.719 43.48H834.407V40.28H822.759V43.48H827.047L818.407 82.776L809.191 40.28H804.647L795.367 82.776L786.791 43.48H791.079V40.28H779.431V43.48H782.055L791.911 87H798.631ZM860.881 87.896C863.612 87.896 865.895 87.576 867.729 86.936C869.607 86.296 871.015 85.3787 871.953 84.184C872.935 82.9467 873.639 81.688 874.065 80.408C874.492 79.0853 874.791 77.5067 874.961 75.672L871.249 75.48C870.993 78.296 870.14 80.4507 868.689 81.944C867.239 83.3947 864.593 84.12 860.753 84.12C856.529 84.12 853.692 83.032 852.241 80.856C850.833 78.6373 850.108 74.9253 850.065 69.72H875.537V68.696C875.537 66.4347 875.452 64.4933 875.281 62.872C875.111 61.208 874.727 59.48 874.129 57.688C873.532 55.896 872.7 54.4453 871.633 53.336C870.609 52.2267 869.159 51.3093 867.281 50.584C865.447 49.8587 863.228 49.496 860.625 49.496C858.023 49.496 855.783 49.8587 853.905 50.584C852.028 51.3093 850.556 52.2267 849.489 53.336C848.423 54.4453 847.591 55.896 846.993 57.688C846.396 59.48 846.012 61.208 845.841 62.872C845.671 64.4933 845.585 66.4347 845.585 68.696C845.585 75.3947 846.631 80.28 848.721 83.352C850.855 86.3813 854.908 87.896 860.881 87.896ZM860.561 53.272C862.737 53.272 864.529 53.592 865.937 54.232C867.388 54.872 868.455 55.8533 869.137 57.176C869.82 58.456 870.289 59.7787 870.545 61.144C870.801 62.5093 870.951 64.1947 870.993 66.2H850.065C850.108 64.28 850.257 62.6373 850.513 61.272C850.812 59.9067 851.303 58.584 851.985 57.304C852.711 55.9813 853.777 54.9787 855.185 54.296C856.636 53.6133 858.428 53.272 860.561 53.272ZM887.675 42.2H891.515V87H894.523L895.419 83.736C899.259 86.5093 903.206 87.896 907.259 87.896C909.606 87.896 911.611 87.5333 913.275 86.808C914.939 86.0827 916.241 85.1653 917.179 84.056C918.118 82.9467 918.865 81.496 919.419 79.704C919.974 77.912 920.315 76.2053 920.443 74.584C920.614 72.92 920.699 70.9573 920.699 68.696C920.699 66.4773 920.614 64.536 920.443 62.872C920.273 61.208 919.91 59.5013 919.355 57.752C918.843 55.96 918.097 54.5093 917.115 53.4C916.177 52.248 914.875 51.3093 913.211 50.584C911.547 49.8587 909.563 49.496 907.259 49.496C903.633 49.496 899.878 50.648 895.995 52.952V39H891.515H887.675V42.2ZM906.619 53.272C908.027 53.272 909.265 53.464 910.331 53.848C911.398 54.232 912.273 54.808 912.955 55.576C913.638 56.344 914.193 57.1973 914.619 58.136C915.089 59.032 915.43 60.12 915.643 61.4C915.857 62.6373 916.006 63.8107 916.091 64.92C916.177 65.9867 916.219 67.2453 916.219 68.696C916.219 70.6587 916.155 72.3013 916.027 73.624C915.942 74.904 915.707 76.2693 915.323 77.72C914.939 79.1707 914.385 80.3227 913.659 81.176C912.977 82.0293 911.974 82.7333 910.651 83.288C909.371 83.8427 907.814 84.12 905.979 84.12C902.523 84.12 899.195 82.904 895.995 80.472V56.6C899.451 54.3813 902.993 53.272 906.619 53.272ZM967.251 40.28H958.803V43.48H962.643V83.8H958.803V87H976.403C979.603 87 982.312 86.6373 984.531 85.912C986.75 85.1867 988.499 84.2267 989.779 83.032C991.102 81.8373 992.104 80.1947 992.787 78.104C993.512 76.0133 993.982 73.9013 994.195 71.768C994.408 69.592 994.515 66.8827 994.515 63.64C994.515 60.952 994.43 58.6907 994.259 56.856C994.131 54.9787 993.854 53.1013 993.427 51.224C993 49.304 992.382 47.7467 991.571 46.552C990.76 45.3147 989.694 44.184 988.371 43.16C987.048 42.136 985.384 41.4107 983.379 40.984C981.416 40.5147 979.091 40.28 976.403 40.28H967.251ZM976.403 44.056C979.347 44.056 981.736 44.4827 983.571 45.336C985.448 46.1893 986.835 47.5547 987.731 49.432C988.627 51.3093 989.203 53.2933 989.459 55.384C989.758 57.4747 989.907 60.2267 989.907 63.64C989.907 67.0533 989.758 69.8053 989.459 71.896C989.203 73.9867 988.627 75.9707 987.731 77.848C986.835 79.7253 985.448 81.0907 983.571 81.944C981.736 82.7973 979.347 83.224 976.403 83.224H967.251V44.056H976.403ZM1023.92 87.896C1026.65 87.896 1028.94 87.576 1030.77 86.936C1032.65 86.296 1034.06 85.3787 1035 84.184C1035.98 82.9467 1036.68 81.688 1037.11 80.408C1037.53 79.0853 1037.83 77.5067 1038 75.672L1034.29 75.48C1034.04 78.296 1033.18 80.4507 1031.73 81.944C1030.28 83.3947 1027.64 84.12 1023.8 84.12C1019.57 84.12 1016.73 83.032 1015.28 80.856C1013.88 78.6373 1013.15 74.9253 1013.11 69.72H1038.58V68.696C1038.58 66.4347 1038.49 64.4933 1038.32 62.872C1038.15 61.208 1037.77 59.48 1037.17 57.688C1036.57 55.896 1035.74 54.4453 1034.68 53.336C1033.65 52.2267 1032.2 51.3093 1030.32 50.584C1028.49 49.8587 1026.27 49.496 1023.67 49.496C1021.06 49.496 1018.82 49.8587 1016.95 50.584C1015.07 51.3093 1013.6 52.2267 1012.53 53.336C1011.46 54.4453 1010.63 55.896 1010.04 57.688C1009.44 59.48 1009.05 61.208 1008.88 62.872C1008.71 64.4933 1008.63 66.4347 1008.63 68.696C1008.63 75.3947 1009.67 80.28 1011.76 83.352C1013.9 86.3813 1017.95 87.896 1023.92 87.896ZM1023.6 53.272C1025.78 53.272 1027.57 53.592 1028.98 54.232C1030.43 54.872 1031.5 55.8533 1032.18 57.176C1032.86 58.456 1033.33 59.7787 1033.59 61.144C1033.84 62.5093 1033.99 64.1947 1034.04 66.2H1013.11C1013.15 64.28 1013.3 62.6373 1013.56 61.272C1013.85 59.9067 1014.34 58.584 1015.03 57.304C1015.75 55.9813 1016.82 54.9787 1018.23 54.296C1019.68 53.6133 1021.47 53.272 1023.6 53.272ZM1059.42 50.392H1048.8V53.592H1051.29L1064.03 87H1068.89L1081.63 53.592H1084.13V50.392H1073.5V53.592H1077.09L1066.46 82.072L1055.77 53.592H1059.42V50.392ZM1110.32 87.896C1113.05 87.896 1115.33 87.576 1117.17 86.936C1119.04 86.296 1120.45 85.3787 1121.39 84.184C1122.37 82.9467 1123.08 81.688 1123.5 80.408C1123.93 79.0853 1124.23 77.5067 1124.4 75.672L1120.69 75.48C1120.43 78.296 1119.58 80.4507 1118.13 81.944C1116.68 83.3947 1114.03 84.12 1110.19 84.12C1105.97 84.12 1103.13 83.032 1101.68 80.856C1100.27 78.6373 1099.55 74.9253 1099.5 69.72H1124.97V68.696C1124.97 66.4347 1124.89 64.4933 1124.72 62.872C1124.55 61.208 1124.16 59.48 1123.57 57.688C1122.97 55.896 1122.14 54.4453 1121.07 53.336C1120.05 52.2267 1118.6 51.3093 1116.72 50.584C1114.88 49.8587 1112.67 49.496 1110.06 49.496C1107.46 49.496 1105.22 49.8587 1103.34 50.584C1101.47 51.3093 1099.99 52.2267 1098.93 53.336C1097.86 54.4453 1097.03 55.896 1096.43 57.688C1095.83 59.48 1095.45 61.208 1095.28 62.872C1095.11 64.4933 1095.02 66.4347 1095.02 68.696C1095.02 75.3947 1096.07 80.28 1098.16 83.352C1100.29 86.3813 1104.35 87.896 1110.32 87.896ZM1110 53.272C1112.17 53.272 1113.97 53.592 1115.37 54.232C1116.83 54.872 1117.89 55.8533 1118.57 57.176C1119.26 58.456 1119.73 59.7787 1119.98 61.144C1120.24 62.5093 1120.39 64.1947 1120.43 66.2H1099.5C1099.55 64.28 1099.69 62.6373 1099.95 61.272C1100.25 59.9067 1100.74 58.584 1101.42 57.304C1102.15 55.9813 1103.21 54.9787 1104.62 54.296C1106.07 53.6133 1107.87 53.272 1110 53.272ZM1138.39 42.2H1142.23V83.8H1138.39V87H1150.55V83.8H1146.71V39H1138.39V42.2ZM1179.58 84.12C1177.53 84.12 1175.78 83.8213 1174.33 83.224C1172.93 82.584 1171.84 81.8373 1171.07 80.984C1170.34 80.088 1169.77 78.8933 1169.34 77.4C1168.91 75.864 1168.66 74.4987 1168.57 73.304C1168.49 72.0667 1168.45 70.5307 1168.45 68.696C1168.45 66.8613 1168.49 65.3467 1168.57 64.152C1168.66 62.9147 1168.91 61.5493 1169.34 60.056C1169.77 58.52 1170.34 57.3253 1171.07 56.472C1171.84 55.576 1172.93 54.8293 1174.33 54.232C1175.78 53.592 1177.53 53.272 1179.58 53.272C1181.63 53.272 1183.36 53.592 1184.77 54.232C1186.22 54.8293 1187.3 55.576 1188.03 56.472C1188.8 57.3253 1189.39 58.52 1189.82 60.056C1190.25 61.5493 1190.5 62.9147 1190.59 64.152C1190.67 65.3467 1190.72 66.8613 1190.72 68.696C1190.72 70.5307 1190.67 72.0667 1190.59 73.304C1190.5 74.4987 1190.25 75.864 1189.82 77.4C1189.39 78.8933 1188.8 80.088 1188.03 80.984C1187.3 81.8373 1186.22 82.584 1184.77 83.224C1183.36 83.8213 1181.63 84.12 1179.58 84.12ZM1179.58 87.896C1181.54 87.896 1183.29 87.704 1184.83 87.32C1186.41 86.936 1187.73 86.4453 1188.8 85.848C1189.91 85.208 1190.85 84.3973 1191.61 83.416C1192.42 82.4347 1193.04 81.432 1193.47 80.408C1193.94 79.384 1194.3 78.1893 1194.56 76.824C1194.81 75.416 1194.98 74.1147 1195.07 72.92C1195.15 71.6827 1195.2 70.2747 1195.2 68.696C1195.2 67.1173 1195.15 65.7307 1195.07 64.536C1194.98 63.2987 1194.81 61.9973 1194.56 60.632C1194.3 59.224 1193.94 58.008 1193.47 56.984C1193.04 55.96 1192.42 54.9573 1191.61 53.976C1190.85 52.9947 1189.91 52.2053 1188.8 51.608C1187.73 50.968 1186.41 50.456 1184.83 50.072C1183.29 49.688 1181.54 49.496 1179.58 49.496C1177.62 49.496 1175.85 49.688 1174.27 50.072C1172.73 50.456 1171.41 50.968 1170.3 51.608C1169.23 52.2053 1168.3 52.9947 1167.49 53.976C1166.72 54.9573 1166.1 55.96 1165.63 56.984C1165.2 58.008 1164.86 59.224 1164.61 60.632C1164.35 61.9973 1164.18 63.2987 1164.09 64.536C1164.01 65.7307 1163.97 67.1173 1163.97 68.696C1163.97 70.2747 1164.01 71.6827 1164.09 72.92C1164.18 74.1147 1164.35 75.416 1164.61 76.824C1164.86 78.1893 1165.2 79.384 1165.63 80.408C1166.1 81.432 1166.72 82.4347 1167.49 83.416C1168.3 84.3973 1169.23 85.208 1170.3 85.848C1171.41 86.4453 1172.73 86.936 1174.27 87.32C1175.85 87.704 1177.62 87.896 1179.58 87.896ZM1215.51 50.392H1212.5H1208.66V53.592H1212.5V98.328H1208.66V101.528H1222.1V98.328H1216.98V85.656C1220.4 87.1493 1223.94 87.896 1227.61 87.896C1230.04 87.896 1232.13 87.5333 1233.88 86.808C1235.67 86.0827 1237.06 85.1653 1238.04 84.056C1239.02 82.9467 1239.79 81.496 1240.34 79.704C1240.94 77.912 1241.3 76.2053 1241.43 74.584C1241.6 72.92 1241.69 70.9573 1241.69 68.696C1241.69 66.4347 1241.6 64.4933 1241.43 62.872C1241.3 61.208 1240.96 59.48 1240.41 57.688C1239.85 55.896 1239.11 54.4453 1238.17 53.336C1237.23 52.2267 1235.93 51.3093 1234.26 50.584C1232.6 49.8587 1230.59 49.496 1228.25 49.496C1224.24 49.496 1220.29 50.9467 1216.41 53.848L1215.51 50.392ZM1227.61 53.272C1229.01 53.272 1230.25 53.464 1231.32 53.848C1232.39 54.232 1233.26 54.808 1233.94 55.576C1234.63 56.344 1235.18 57.1973 1235.61 58.136C1236.08 59.032 1236.42 60.12 1236.63 61.4C1236.84 62.6373 1236.99 63.8107 1237.08 64.92C1237.16 65.9867 1237.21 67.2453 1237.21 68.696C1237.21 70.6587 1237.14 72.3227 1237.01 73.688C1236.93 75.0107 1236.67 76.3973 1236.25 77.848C1235.86 79.256 1235.31 80.3867 1234.58 81.24C1233.86 82.0507 1232.85 82.7333 1231.57 83.288C1230.29 83.8427 1228.76 84.12 1226.97 84.12C1223.3 84.12 1219.97 83.4373 1216.98 82.072V57.048C1220.27 54.5307 1223.81 53.272 1227.61 53.272ZM1271.05 87.896C1273.78 87.896 1276.06 87.576 1277.89 86.936C1279.77 86.296 1281.18 85.3787 1282.12 84.184C1283.1 82.9467 1283.8 81.688 1284.23 80.408C1284.66 79.0853 1284.96 77.5067 1285.13 75.672L1281.41 75.48C1281.16 78.296 1280.3 80.4507 1278.85 81.944C1277.4 83.3947 1274.76 84.12 1270.92 84.12C1266.69 84.12 1263.86 83.032 1262.41 80.856C1261 78.6373 1260.27 74.9253 1260.23 69.72H1285.7V68.696C1285.7 66.4347 1285.62 64.4933 1285.45 62.872C1285.28 61.208 1284.89 59.48 1284.29 57.688C1283.7 55.896 1282.86 54.4453 1281.8 53.336C1280.77 52.2267 1279.32 51.3093 1277.45 50.584C1275.61 49.8587 1273.39 49.496 1270.79 49.496C1268.19 49.496 1265.95 49.8587 1264.07 50.584C1262.19 51.3093 1260.72 52.2267 1259.65 53.336C1258.59 54.4453 1257.76 55.896 1257.16 57.688C1256.56 59.48 1256.18 61.208 1256.01 62.872C1255.84 64.4933 1255.75 66.4347 1255.75 68.696C1255.75 75.3947 1256.8 80.28 1258.89 83.352C1261.02 86.3813 1265.07 87.896 1271.05 87.896ZM1270.73 53.272C1272.9 53.272 1274.69 53.592 1276.1 54.232C1277.55 54.872 1278.62 55.8533 1279.3 57.176C1279.98 58.456 1280.45 59.7787 1280.71 61.144C1280.97 62.5093 1281.12 64.1947 1281.16 66.2H1260.23C1260.27 64.28 1260.42 62.6373 1260.68 61.272C1260.98 59.9067 1261.47 58.584 1262.15 57.304C1262.88 55.9813 1263.94 54.9787 1265.35 54.296C1266.8 53.6133 1268.59 53.272 1270.73 53.272ZM1306.61 50.392H1303.6H1299.76V53.592H1303.6V83.8H1299.76V87H1313.2V83.8H1308.08V62.104C1310.98 56.7707 1315.44 53.9973 1321.46 53.784V49.496C1315.48 49.7093 1311 52.3547 1308.02 57.432L1306.61 50.392Z" fill="#2C3E50"/>
<path d="M1092.03 262.121L1096.36 235.442L1143.95 233.279V258.516L1151.88 275.1L1133.13 279.426L1120.87 283.032L1092.03 262.121Z" fill="#FDE5D7" stroke="#2C3E50" stroke-width="7"/>
<path d="M1009.83 436.136C1007.57 430.134 1002.36 415.728 999.636 415.728H982.646C979.475 415.528 973.268 416.568 973.811 422.331L973.812 437.337H1003.04L1009.83 436.136Z" fill="#D2D2D2" stroke="#2C3E50" stroke-width="4"/>
<path d="M1227.59 436.136C1229.85 430.134 1235.07 415.728 1237.78 415.728H1254.77C1257.95 415.528 1264.15 416.568 1263.61 422.331V437.337H1234.39L1227.59 436.136Z" fill="#D2D2D2" stroke="#2C3E50" stroke-width="4"/>
<path d="M1094.19 249.863C1044.59 252.17 1027.86 278.705 1025.69 291.684L1015.6 299.616C1021.85 302.019 1036.08 306.826 1043 306.826C1051.65 306.826 1055.98 298.174 1064.63 299.616C1073.28 301.058 1094.19 306.826 1113.66 306.826H1141.78L1213.89 314.037L1219.66 291.684C1197.74 253.613 1158.61 247.94 1141.78 249.863C1136.59 270.629 1125.68 274.86 1120.87 274.379C1104.15 278.417 1096.12 259.717 1094.19 249.863Z" fill="#D2D2D2" stroke="#2C3E50" stroke-width="7"/>
<path d="M1243.22 288.079H997.086C993.772 288.079 991.086 290.765 991.086 294.079V433.5C991.086 436.814 993.772 439.5 997.086 439.5H1243.22C1246.54 439.5 1249.22 436.814 1249.22 433.5V294.079C1249.22 290.765 1246.54 288.079 1243.22 288.079Z" fill="#D2D2D2" stroke="#2C3E50" stroke-width="5"/>
<path d="M1120.87 387.968C1133.83 387.968 1144.33 377.465 1144.33 364.51C1144.33 351.554 1133.83 341.052 1120.87 341.052C1107.92 341.052 1097.41 351.554 1097.41 364.51C1097.41 377.465 1107.92 387.968 1120.87 387.968Z" fill="#42B983" stroke="#2C3E50" stroke-width="5"/>
<path d="M906 438.779H1334.31" stroke="#2C3E50" stroke-width="6" stroke-linecap="round" stroke-linejoin="round"/>
<path d="M1197.31 185.144C1194.7 196.287 1182.31 199.073 1176.45 199.073C1174.49 199.073 1170.45 198.144 1169.93 194.43C1169.28 189.787 1170.58 188.46 1169.28 185.144C1168.23 182.491 1168.84 180.059 1169.28 179.175L1166.67 169.889L1177.75 167.899C1193.39 165.776 1197.31 178.511 1197.31 185.144Z" fill="#FDE5D7"/>
<path d="M1051.29 167.899H1068.24C1068.46 171.879 1068.76 180.103 1068.24 181.164C1067.72 182.226 1068.89 196.641 1069.54 203.716L1055.2 201.063C1043.73 197.348 1040.43 188.903 1040.21 185.144C1039.17 175.062 1047.16 169.447 1051.29 167.899Z" fill="#FDE5D7"/>
<path d="M1197.31 185.144C1194.7 196.287 1182.31 199.073 1176.45 199.073C1174.49 199.073 1170.45 198.144 1169.93 194.43C1169.28 189.787 1170.58 188.46 1169.28 185.144C1168.23 182.491 1168.84 180.059 1169.28 179.175L1166.67 169.889L1177.75 167.899C1193.39 165.776 1197.31 178.511 1197.31 185.144Z" stroke="#2C3E50" stroke-width="4"/>
<path d="M1051.29 167.899H1068.24C1068.46 171.879 1068.76 180.103 1068.24 181.164C1067.72 182.226 1068.89 196.641 1069.54 203.716L1055.2 201.063C1043.73 197.348 1040.43 188.903 1040.21 185.144C1039.17 175.062 1047.16 169.447 1051.29 167.899Z" stroke="#2C3E50" stroke-width="4"/>
<path d="M1174.23 149.637C1178.56 153.242 1185.77 180.642 1182.16 197.947C1169.18 236.163 1138.18 244.095 1126.64 244.095C1098.95 249.863 1074.25 226.79 1065.35 214.532C1053.24 194.919 1056.94 169.346 1060.31 159.011C1066.07 147.474 1072.8 143.628 1075.45 143.147H1153.32C1160.53 140.984 1164.14 137.619 1165.58 138.821L1174.23 149.637Z" fill="#D2D2D2"/>
<path d="M1174.23 149.637C1178.56 153.242 1185.77 180.642 1182.16 197.947C1169.18 236.163 1138.18 244.095 1126.64 244.095C1098.95 249.863 1074.25 226.79 1065.35 214.532C1053.24 194.919 1056.94 169.346 1060.31 159.011C1066.07 147.474 1072.8 143.628 1075.45 143.147H1153.32C1160.53 140.984 1164.14 137.619 1165.58 138.821L1174.23 149.637Z" fill="#FDE5D7"/>
<path d="M1174.23 149.637C1178.56 153.242 1185.77 180.642 1182.16 197.947C1169.18 236.163 1138.18 244.095 1126.64 244.095C1098.95 249.863 1074.25 226.79 1065.35 214.532C1053.24 194.919 1056.94 169.346 1060.31 159.011C1066.07 147.474 1072.8 143.628 1075.45 143.147H1153.32C1160.53 140.984 1164.14 137.619 1165.58 138.821L1174.23 149.637Z" stroke="#2C3E50" stroke-width="5"/>
<path d="M1176.3 147.649C1173.4 149.605 1167.05 141.274 1164.24 136.864C1164.92 131.022 1171.95 126.858 1175.38 125.507C1179.89 132.205 1177.87 143.059 1176.3 147.649Z" fill="#42B983" stroke="#2C3E50" stroke-width="5"/>
<path d="M1153.32 144.59L1088.43 141.705C1079.02 140.85 1070.81 150.455 1065.35 154.684C1063.44 156.162 1061.75 154.684 1060.31 154.684V138.1C1060.88 119.064 1085.06 109.018 1097.08 106.374L1146.83 104.932C1156.64 104.932 1166.3 99.6439 1169.91 97L1174.23 119.353C1176.54 135.504 1161.25 142.907 1153.32 144.59Z" fill="#42B983" stroke="#2C3E50" stroke-width="5"/>
<path d="M1103.66 173.74H1083.28C1078.72 173.74 1075.03 177.434 1075.03 181.99V202.369C1075.03 206.925 1078.72 210.619 1083.28 210.619H1103.66C1108.22 210.619 1111.91 206.925 1111.91 202.369V181.99C1111.91 177.434 1108.22 173.74 1103.66 173.74Z" stroke="#2C3E50" stroke-width="3.5"/>
<path d="M1092.75 186.41C1096.34 186.41 1099.24 188.993 1099.24 192.179C1099.24 195.365 1096.34 197.947 1092.75 197.947C1089.17 197.947 1086.26 195.365 1086.26 192.179C1086.26 188.993 1089.17 186.41 1092.75 186.41Z" fill="#2C3E50"/>
<path d="M1146.11 186.41C1149.69 186.41 1152.6 188.993 1152.6 192.179C1152.6 195.365 1149.69 197.947 1146.11 197.947C1142.53 197.947 1139.62 195.365 1139.62 192.179C1139.62 188.993 1142.53 186.41 1146.11 186.41Z" fill="#2C3E50"/>
<path d="M1180.72 169.105L1164.86 186.41C1164.86 184.968 1164.86 174.153 1148.27 174.153C1144.67 174.153 1138.76 173.72 1132.41 177.758C1130.01 180.161 1128.81 187.132 1128.81 187.132C1128.81 187.132 1117.51 187.132 1111.5 187.132C1111.5 178.479 1105.01 174.153 1094.19 174.153C1079.77 174.153 1076.17 179.921 1076.17 184.968L1057.42 169.105" stroke="#2C3E50" stroke-width="3" stroke-linecap="round"/>
<path d="M1157.02 173.74H1136.64C1132.08 173.74 1128.39 177.434 1128.39 181.99V202.369C1128.39 206.925 1132.08 210.619 1136.64 210.619H1157.02C1161.58 210.619 1165.27 206.925 1165.27 202.369V181.99C1165.27 177.434 1161.58 173.74 1157.02 173.74Z" stroke="#2C3E50" stroke-width="3.5"/>
<defs>
<linearGradient id="paint0_linear_407_6" x1="-102" y1="311.5" x2="1672" y2="374.5" gradientUnits="userSpaceOnUse">
<stop offset="0.0989583" stop-color="#75DCAD"/>
<stop offset="0.4375" stop-color="#A7F4D1"/>
<stop offset="0.723958" stop-color="white" stop-opacity="0.25"/>
</linearGradient>
</defs>
</svg>
